<svg width="48" height="46" viewBox="0 0 48 46" fill="none" xmlns="http://www.w3.org/2000/svg">
<path d="M48 24.5261C47.9073 25.191 47.8322 25.8583 47.7182 26.5196C46.6488 32.7638 43.4656 37.7779 38.1687 41.5617C34.9968 43.8479 31.2578 45.302 27.3206 45.7804C20.6975 46.6037 14.6655 45.1191 9.36226 41.2088C4.5687 37.6754 1.52326 33.0211 0.446338 27.3177C-0.976202 19.7913 1.00233 13.099 6.37192 7.41963C10.21 3.36056 15.0499 1.01177 20.7025 0.205234C21.2698 0.12002 21.8408 0.0672111 22.4156 0H25.6025C26.1723 0.0696115 26.7358 0.130822 27.2993 0.210035C31.9826 0.866544 36.1438 2.64044 39.7077 5.63133C44.1323 9.34475 46.8037 13.9919 47.722 19.5728C47.8247 20.2041 47.9048 20.8391 47.995 21.4716L48 24.5261ZM24.8336 42.9671V44.4206C26.6292 44.3757 28.4111 44.107 30.1343 43.6212C29.9741 43.1207 29.8301 42.6695 29.6773 42.1894L31.19 41.7249C31.3653 42.2206 31.5243 42.6683 31.6909 43.1459C33.3835 42.5584 34.992 41.7685 36.4782 40.7948L35.5741 39.5766L36.8701 38.6716L37.8606 39.9618L41.7 36.2796L40.3551 35.3315L41.2893 34.0856L42.5766 34.957C43.5849 33.5291 44.4043 31.9866 45.0159 30.365L43.5295 29.8729C43.7048 29.3677 43.8639 28.9128 44.0304 28.4327L45.5231 28.8732C46.0039 27.1929 46.3233 25.5282 46.3383 23.7771H44.8356V22.2037H46.3383C46.2939 20.4827 46.0165 18.7745 45.5131 17.122L44.0191 17.5613C43.8501 17.068 43.6936 16.6072 43.5258 16.1211L45.0122 15.6266C44.4002 14.01 43.5821 12.4721 42.5766 11.0478L41.3005 11.9108L40.3589 10.6722L41.7 9.72161L37.8682 6.0466C37.4925 6.53388 37.2007 6.91675 36.8764 7.33682L35.5766 6.43307C35.8996 5.99739 36.1852 5.61213 36.5483 5.12005L31.7335 2.76046L31.1812 4.28351L29.6785 3.80343C29.8401 3.29935 29.9853 2.84327 30.1381 2.36919C28.385 1.91432 26.6519 1.60467 24.8073 1.58906V3.0293H23.1669V1.46904L17.8399 2.28038C18.0302 2.88048 18.178 3.33775 18.332 3.82263L16.8168 4.28351C16.6377 3.77823 16.48 3.32935 16.3159 2.86007C14.6218 3.44477 13.0126 4.23449 11.5274 5.21006L12.4315 6.42706L11.1354 7.32721L10.1336 6.043L6.31431 9.72161L7.66297 10.6698L6.72004 11.9072L5.44151 11.0418C4.43203 12.4679 3.6098 14.0077 2.99339 15.6266L4.47603 16.1223C4.30573 16.6204 4.15045 17.0716 3.9839 17.5625L2.48122 17.1292C2.00161 18.8095 1.68104 20.473 1.66727 22.2241H3.16995V23.7963H1.66727C1.71511 25.5167 1.99673 27.2238 2.50501 28.8744L3.99643 28.4375C4.16548 28.9308 4.32201 29.3977 4.48981 29.8778L2.99714 30.371C3.61509 31.9883 4.43769 33.5269 5.44652 34.9522L6.71127 34.0856L7.65045 35.3231L6.40698 36.2208C7.51248 37.5791 8.78996 38.8002 10.21 39.8562L11.1454 38.668L12.4377 39.5694C12.1209 39.993 11.8342 40.3795 11.5286 40.79C13.0161 41.7646 14.6274 42.5531 16.3234 43.1363C16.4988 42.6431 16.6578 42.1942 16.8243 41.7165L18.337 42.1894C18.1767 42.6839 18.0315 43.1363 17.8762 43.6212C19.6051 44.103 21.392 44.3673 23.1919 44.4074V42.9671H24.8336Z" fill="#455BB1"/>
<path d="M41.5813 22.402C41.9282 30.9498 35.374 38.8567 25.7856 39.7677C15.6425 40.7278 7.41028 33.6467 6.50116 24.6968C5.52567 15.0688 12.7874 7.15588 22.1917 6.22332C24.5897 5.98482 27.0133 6.22147 29.3119 6.91858C31.6105 7.6157 33.735 8.75838 35.5534 10.2756C37.3718 11.7929 38.8452 13.6523 39.8822 15.7384C40.9192 17.8245 41.4975 20.0927 41.5813 22.402ZM39.9834 22.9937C39.9634 14.5227 32.7706 7.63836 23.9886 7.68157C15.1253 7.72837 7.94874 14.6235 8.02638 23.0201C8.10402 31.5295 15.1478 38.2746 23.9924 38.3106C32.7643 38.349 40.0022 31.4155 39.9834 22.9937Z" fill="#455BB1"/>
<path d="M23.9974 36.026C21.3078 36.0249 18.6791 35.259 16.4438 33.8253C14.2086 32.3916 12.4673 30.3547 11.4404 27.9722C10.4135 25.5896 10.1472 22.9687 10.675 20.441C11.2028 17.9134 12.5012 15.5926 14.4057 13.7724C16.3102 11.9523 18.7353 10.7145 21.3741 10.2158C24.0128 9.71716 26.7466 9.97996 29.2295 10.971C31.7124 11.962 33.8327 13.6367 35.3221 15.7832C36.8115 17.9296 37.6031 20.4513 37.5967 23.0291C37.589 26.4803 36.1526 29.7875 33.6027 32.2244C31.0529 34.6613 27.5982 36.0286 23.9974 36.026ZM33.3591 15.8423C32.0143 14.2305 30.2405 12.9965 28.2249 12.2705C28.146 12.4397 28.0822 12.5718 28.0233 12.7062C27.4573 13.9968 26.8942 15.291 26.334 16.5888C26.1024 17.1253 25.7893 17.5946 25.2559 17.903C23.9535 18.6532 22.3983 18.1659 21.7621 16.7713C21.1435 15.4174 20.5687 14.0456 19.9739 12.6822C19.9151 12.549 19.8487 12.4205 19.7686 12.2633C17.7586 12.9941 15.9911 14.2305 14.6519 15.8423L15.3857 16.452C16.5052 17.3846 17.6535 18.2883 18.7342 19.2593C19.4292 19.8846 19.5807 20.7163 19.2627 21.5769C18.9446 22.4374 18.2959 22.9619 17.343 23.0843C16.6793 23.1695 16.0081 23.2043 15.3394 23.2631C14.255 23.3519 13.1718 23.4372 12.056 23.5248C12.1397 25.5862 12.8105 27.5864 13.9958 29.3085C14.156 29.2209 14.2913 29.1525 14.4215 29.0757C15.7264 28.3136 17.0224 27.537 18.336 26.7893C19.7135 26.008 21.3276 26.4953 21.8974 27.8383C22.1641 28.4684 22.0602 29.0961 21.8974 29.7298C21.5355 31.1604 21.1836 32.5935 20.8292 34.0193C22.3544 34.6422 25.9383 34.6266 27.1618 33.9989L26.021 29.3925C25.8469 28.6928 25.9058 28.0267 26.3378 27.4182C27.0891 26.3608 28.4666 26.098 29.6888 26.8025C31.1188 27.6247 32.5376 28.466 33.9965 29.3229C35.191 27.6033 35.865 25.6001 35.9437 23.5356C35.5893 23.5032 35.2813 23.4732 34.972 23.448C33.5269 23.3279 32.078 23.2331 30.6367 23.0879C29.5022 22.9679 28.6331 21.9969 28.6006 20.9071C28.5793 20.0994 28.9475 19.4741 29.5761 18.9604C30.8271 17.9318 32.0668 16.9045 33.3591 15.8423ZM21.3526 11.8192C21.9662 13.2295 22.5673 14.6013 23.1559 15.9779C23.3187 16.3596 23.5315 16.698 24.0024 16.698C24.4732 16.698 24.6874 16.3656 24.8514 15.9779C25.3936 14.7105 25.9496 13.4467 26.4981 12.1805C26.5494 12.0605 26.587 11.9405 26.6321 11.812C24.6573 11.4136 23.4176 11.4124 21.3526 11.8192ZM15.0013 30.5519C16.2335 31.8614 17.6185 32.8623 19.2902 33.5344C19.6772 31.9838 20.0578 30.4763 20.4272 28.9677C20.5061 28.6448 20.4473 28.3388 20.1543 28.1179C20.0278 28.0149 19.8692 27.9548 19.7034 27.9472C19.5376 27.9396 19.3738 27.9849 19.2376 28.0759C17.8389 28.8861 16.4464 29.7058 15.0013 30.5519ZM32.9797 30.5735C32.9208 30.522 32.8585 30.4743 32.7931 30.4307C31.4907 29.665 30.1876 28.9009 28.8836 28.1383C28.5568 27.9463 28.2224 27.8623 27.8818 28.0963C27.5412 28.3304 27.5061 28.6964 27.6013 29.0625C27.7653 29.7154 27.9319 30.3671 28.0947 31.02C28.3026 31.8518 28.5079 32.6847 28.7208 33.5404C30.3515 32.865 31.806 31.8517 32.9797 30.5735ZM13.729 17.1313C12.8099 18.6484 12.2426 20.211 12.1011 21.9681C13.8154 21.8313 15.4634 21.7173 17.1101 21.5468C17.3405 21.5228 17.611 21.2564 17.7362 21.0368C17.9165 20.7283 17.7362 20.4235 17.4745 20.2038C16.2373 19.1849 15.0038 18.1755 13.729 17.1277V17.1313ZM34.2757 17.1313C33.0022 18.1779 31.745 19.1825 30.534 20.2362C30.3412 20.4031 30.2648 20.8003 30.2999 21.0764C30.3424 21.4136 30.6755 21.5564 31.0374 21.5805C32.0467 21.6597 33.0548 21.7509 34.0641 21.8301C34.6652 21.8769 35.2675 21.9093 35.9149 21.9501C35.7583 20.2452 35.1977 18.5971 34.2757 17.1313Z" fill="#455BB1"/>
<path d="M23.9999 19.941C24.632 19.94 25.2501 20.119 25.7758 20.4553C26.3016 20.7915 26.7113 21.2699 26.953 21.8296C27.1947 22.3894 27.2575 23.0054 27.1335 23.5994C27.0094 24.1934 26.704 24.7387 26.2561 25.1662C25.8082 25.5936 25.2379 25.8839 24.6176 26.0002C23.9973 26.1166 23.3549 26.0537 22.772 25.8196C22.189 25.5856 21.6917 25.1908 21.3431 24.6854C20.9946 24.1801 20.8105 23.5869 20.8142 22.9811C20.8139 22.5806 20.8961 22.1841 21.0563 21.8142C21.2164 21.4444 21.4513 21.1085 21.7474 20.826C22.0434 20.5435 22.3949 20.3198 22.7814 20.1679C23.168 20.016 23.5821 19.9389 23.9999 19.941ZM25.5977 23.0195C25.6022 22.7168 25.5128 22.4197 25.3408 22.1658C25.1688 21.912 24.922 21.7128 24.6317 21.5936C24.3415 21.4743 24.0208 21.4404 23.7104 21.4962C23.4 21.5519 23.1138 21.6947 22.8882 21.9065C22.6626 22.1183 22.5078 22.3896 22.4433 22.6859C22.3788 22.9822 22.4076 23.2902 22.526 23.5708C22.6445 23.8514 22.8472 24.092 23.1085 24.262C23.3697 24.432 23.6778 24.5238 23.9936 24.5257C24.4117 24.5201 24.8114 24.3606 25.11 24.0801C25.4087 23.7997 25.5833 23.4199 25.5977 23.0195Z" fill="#455BB1"/>
</svg>
