<svg width="19" height="19" viewBox="0 0 19 19" fill="none" xmlns="http://www.w3.org/2000/svg">
<g clip-path="url(#clip0_2001_4605)">
<path d="M19.0001 6.12265C18.895 6.29169 18.7408 6.34523 18.545 6.34226C17.9997 6.33482 17.4544 6.34226 16.9131 6.33829C16.8269 6.34149 16.7408 6.32872 16.6593 6.30062C16.5185 6.2441 16.4555 6.12711 16.4759 5.97294C16.4952 5.8272 16.5785 5.72855 16.7237 5.71467C16.9433 5.69385 17.1649 5.69187 17.3979 5.68096V3.18451H16.4714C16.4714 3.36892 16.4793 3.55184 16.4714 3.73427C16.458 3.89439 16.3871 4.01534 16.2102 4.05103C16.057 4.08028 15.9355 4.02526 15.8721 3.88893C15.8398 3.80268 15.8253 3.71078 15.8294 3.61876C15.8255 3.21673 15.8265 2.8152 15.8294 2.41317C15.8294 2.20943 15.8294 2.00519 15.8443 1.80195C15.8557 1.63489 15.9747 1.54615 16.1274 1.53376C16.1992 1.52442 16.272 1.54242 16.3312 1.5842C16.3904 1.62597 16.4318 1.68848 16.4471 1.75931C16.4631 1.8242 16.4711 1.89078 16.4709 1.9576C16.4739 2.13656 16.4709 2.31551 16.4709 2.50984H17.4078V2.28825C17.4078 1.86193 17.4078 1.43511 17.4078 1.00879C17.4078 0.760932 17.2933 0.646916 17.0489 0.63254C17.0058 0.63254 16.9627 0.63254 16.9195 0.63254C11.9729 0.63254 7.02627 0.63254 2.07963 0.63254C1.98048 0.63254 1.86796 0.6256 1.79162 0.672198C1.70784 0.72177 1.60572 0.830333 1.60324 0.915597C1.58589 1.44503 1.59432 1.97545 1.59432 2.51578H2.52826C2.52826 2.31303 2.5233 2.11673 2.52826 1.92092C2.53371 1.76725 2.60261 1.64232 2.76025 1.60019C2.90352 1.56202 3.03687 1.60019 3.11222 1.73502C3.14804 1.80603 3.16656 1.88451 3.16625 1.96405C3.17055 2.55164 3.17055 3.13907 3.16625 3.72634C3.16625 3.9742 3.03736 4.11994 2.84056 4.11498C2.64376 4.11002 2.52826 3.96081 2.52528 3.71246C2.52528 3.53994 2.52528 3.36545 2.52528 3.16716H1.60423V5.68989C1.74452 5.68989 1.88431 5.68989 2.02361 5.68989C2.11605 5.68857 2.20839 5.69654 2.29923 5.71368C2.36463 5.72539 2.42367 5.76011 2.46568 5.81158C2.50769 5.86304 2.52989 5.92785 2.52826 5.99426C2.53748 6.06243 2.52188 6.13164 2.48429 6.18926C2.4467 6.24687 2.38963 6.28904 2.32352 6.30805C2.25952 6.32889 2.19254 6.33911 2.12524 6.33829C1.55648 6.34093 0.987721 6.34093 0.418963 6.33829C0.36356 6.33892 0.308289 6.33276 0.254384 6.31995C0.0883172 6.27831 -0.00190409 6.16776 0.00652317 5.99773C0.0159419 5.83761 0.105667 5.7231 0.270247 5.71219C0.484398 5.69831 0.700037 5.70872 0.946906 5.70872V5.44649C0.946906 4.03666 0.960291 2.62683 0.940957 1.217C0.933026 0.624609 1.11942 0.198288 1.70833 0H17.2933C17.3022 0.00793154 17.3102 0.0198288 17.3206 0.0237946C17.854 0.225553 18.0557 0.513567 18.0562 1.08513C18.0562 2.53661 18.0562 3.98775 18.0562 5.43856V5.69286C18.2277 5.69286 18.3745 5.69683 18.5212 5.69286C18.7155 5.68592 18.8871 5.7236 18.9996 5.90106L19.0001 6.12265Z" fill="#455BB1"/>
<path d="M19 17.8485C18.8915 18.0175 18.7279 18.0607 18.539 18.0542C18.3863 18.0488 18.2337 18.0542 18.0567 18.0542C18.0567 18.2466 18.0681 18.4186 18.0527 18.5881C18.0433 18.6937 18.023 18.8275 17.9536 18.891C17.9094 18.9254 17.8588 18.9507 17.8048 18.9652C17.7507 18.9798 17.6943 18.9834 17.6388 18.9758C17.4812 18.9505 17.4167 18.8087 17.4113 18.6555C17.4048 18.4652 17.4113 18.2743 17.4113 18.0542C17.2829 18.0542 17.1684 18.0542 17.0538 18.0542C16.9612 18.0566 16.8686 18.0539 16.7762 18.0463C16.5829 18.024 16.4748 17.909 16.4729 17.737C16.4706 17.6949 16.477 17.6528 16.4918 17.6133C16.5066 17.5739 16.5293 17.5379 16.5586 17.5077C16.588 17.4774 16.6232 17.4535 16.6622 17.4375C16.7012 17.4216 16.743 17.4138 16.7852 17.4147C17.4157 17.4053 18.0463 17.4009 18.6758 17.4207C18.7864 17.4242 18.8925 17.555 19.0005 17.6274L19 17.8485Z" fill="#455BB1"/>
<path d="M19 8.34896C18.8895 8.43224 18.7879 8.53387 18.6664 8.59682C18.1072 8.88434 17.5426 9.16145 16.981 9.44252C16.8516 9.50697 16.7073 9.54415 16.6032 9.43063C16.5284 9.34671 16.4881 9.23765 16.4902 9.12526C16.4971 9.04149 16.5859 8.93342 16.6672 8.89128C17.2799 8.57303 17.898 8.26469 18.5182 7.96081C18.719 7.86167 18.83 7.91124 19.0015 8.12688L19 8.34896Z" fill="#455BB1"/>
<path d="M19 9.61046C18.8954 9.69225 18.8017 9.79239 18.6852 9.85237C18.1434 10.1329 17.5946 10.4031 17.0493 10.6738C16.9736 10.7143 16.892 10.7425 16.8074 10.7576C16.7424 10.7693 16.6753 10.7572 16.6183 10.7237C16.5614 10.6901 16.5184 10.6372 16.4971 10.5746C16.4426 10.4383 16.4624 10.305 16.5853 10.2073C16.6396 10.1667 16.6979 10.1319 16.7593 10.1032C17.3162 9.82461 17.8732 9.54667 18.4304 9.2694C18.7115 9.1301 18.8037 9.14993 19 9.38788V9.61046Z" fill="#455BB1"/>
<path d="M19 15.9559C18.8825 16.0401 18.773 16.1403 18.6461 16.2037C18.0918 16.4883 17.5327 16.7624 16.9755 17.041C16.8451 17.1064 16.7018 17.1401 16.5992 17.0241C16.5254 16.9396 16.4861 16.8304 16.4892 16.7183C16.4971 16.634 16.5883 16.5279 16.6696 16.4858C17.2769 16.1705 17.8901 15.8656 18.5038 15.5637C18.7184 15.4586 18.832 15.5043 18.9995 15.7313L19 15.9559Z" fill="#455BB1"/>
<path d="M18.9999 10.8721C18.8968 10.9554 18.8016 11.0585 18.6881 11.12C18.1245 11.4115 17.5584 11.699 16.9838 11.9677C16.9237 11.9916 16.8595 12.0034 16.7948 12.0024C16.7302 12.0014 16.6664 11.9876 16.6071 11.9617C16.5332 11.9246 16.4816 11.7659 16.4881 11.6643C16.4935 11.58 16.5803 11.4695 16.6606 11.4278C17.2783 11.1066 17.8999 10.7963 18.5265 10.4904C18.7055 10.4027 18.8299 10.4547 18.9999 10.6496V10.8721Z" fill="#455BB1"/>
<path d="M19.0001 13.3952C18.9198 13.4696 18.8514 13.5658 18.7577 13.6138C18.1712 13.9162 17.5794 14.2087 16.989 14.5037C16.8611 14.5681 16.7178 14.6097 16.6107 14.5007C16.5329 14.4212 16.4891 14.3145 16.4888 14.2032C16.4977 14.1135 16.5879 14.0005 16.6747 13.9554C17.2814 13.6386 17.8946 13.3338 18.5088 13.0319C18.7215 12.9273 18.8425 12.9788 18.9996 13.2118L19.0001 13.3952Z" fill="#455BB1"/>
<path d="M19 14.6941C18.8752 14.7888 18.745 14.876 18.6099 14.9553C18.0646 15.2344 17.5193 15.5031 16.974 15.7772C16.8426 15.8431 16.6994 15.8719 16.5977 15.7584C16.5244 15.6731 16.486 15.5634 16.4902 15.451C16.4991 15.3668 16.5893 15.2632 16.6731 15.22C17.2808 14.9047 17.8936 14.5994 18.5073 14.297C18.7199 14.1924 18.8389 14.2415 19.0005 14.4715L19 14.6941Z" fill="#455BB1"/>
<path d="M19 7.08879C18.883 7.17356 18.7745 7.27518 18.6471 7.34062C18.1206 7.61178 17.5887 7.87253 17.0578 8.13377C16.9975 8.16438 16.9352 8.19087 16.8714 8.21309C16.7123 8.26663 16.5878 8.20863 16.511 8.06933C16.473 8.00807 16.4585 7.9351 16.4703 7.86398C16.4821 7.79285 16.5193 7.72842 16.575 7.68267C16.6221 7.64266 16.6744 7.6093 16.7306 7.58352C17.2981 7.29865 17.8665 7.01444 18.4359 6.73088C18.7125 6.59307 18.8131 6.61835 19 6.86423V7.08879Z" fill="#455BB1"/>
<path d="M19 12.1337C18.8974 12.218 18.8057 12.3236 18.6902 12.3816C18.1271 12.6736 17.557 12.9532 16.9894 13.2367C16.8615 13.3007 16.7152 13.3383 16.6087 13.2323C16.5698 13.1926 16.5392 13.1456 16.5186 13.0941C16.498 13.0425 16.4879 12.9874 16.4887 12.9319C16.4981 12.8426 16.5878 12.7296 16.6751 12.684C17.2814 12.3682 17.8941 12.0643 18.5093 11.7625C18.7041 11.6663 18.8151 11.7064 19.0015 11.9087L19 12.1337Z" fill="#455BB1"/>
<path d="M12.9636 17.43H6.0176C6.0176 17.7071 6.00372 17.9778 6.02057 18.246C6.05279 18.7466 5.69984 19.0322 5.25815 19.0029C4.88884 18.9781 4.51457 18.9995 4.14575 18.9975C3.75512 18.995 3.49438 18.7412 3.48793 18.353C3.48198 18.006 3.48793 17.659 3.48248 17.3145C3.48259 17.2366 3.45755 17.1608 3.41109 17.0984C3.24482 16.9039 3.15652 16.6547 3.16323 16.3989C3.16092 15.3853 3.16092 14.3714 3.16323 13.3572C3.15863 13.1897 3.19449 13.0237 3.26776 12.8731C3.34102 12.7225 3.44954 12.5918 3.5841 12.4921C3.93111 12.2234 4.27811 11.9518 4.60777 11.6648C4.71121 11.5723 4.78546 11.4517 4.82142 11.3178C4.98203 10.6589 5.11885 9.99468 5.27203 9.33487C5.38704 8.83469 5.73702 8.54717 6.25158 8.54618C8.41523 8.54287 10.5799 8.54287 12.7455 8.54618C13.2631 8.54618 13.6225 8.85105 13.732 9.35371C13.8708 9.9922 14.0091 10.6312 14.1415 11.2712C14.17 11.4353 14.2609 11.5821 14.3953 11.6806C14.7423 11.9458 15.0799 12.2299 15.4259 12.4996C15.5599 12.5999 15.6677 12.7312 15.7402 12.8821C15.8127 13.033 15.8477 13.1992 15.8423 13.3666C15.8423 14.3745 15.8423 15.3825 15.8423 16.3905C15.8488 16.6517 15.7567 16.9058 15.5845 17.1023C15.5417 17.1596 15.5186 17.2291 15.5186 17.3006C15.5121 17.6476 15.5186 17.9946 15.5141 18.3392C15.5082 18.7422 15.2504 18.9935 14.8474 18.9955C14.4444 18.9975 14.0438 18.9955 13.6418 18.9955C13.2522 18.993 12.9944 18.7382 12.9869 18.3461C12.981 18.0556 12.9835 17.7651 12.9815 17.4746C12.9775 17.459 12.9715 17.444 12.9636 17.43ZM15.1904 15.5026C15.1904 14.7526 15.1974 14.0234 15.1825 13.2942C15.1825 13.1906 15.0933 13.0637 15.008 12.9913C14.6451 12.6835 14.2699 12.3905 13.8951 12.099C13.8419 12.0596 13.7778 12.0378 13.7117 12.0366C10.9049 12.0336 8.09814 12.0336 5.29136 12.0366C5.2256 12.0373 5.16167 12.0584 5.10844 12.097C4.74359 12.3826 4.38568 12.6775 4.01786 12.9621C3.94753 13.0115 3.89093 13.0781 3.85338 13.1554C3.81583 13.2328 3.79857 13.3184 3.80321 13.4042C3.81114 13.9609 3.80618 14.5171 3.80618 15.0738V15.5041L15.1904 15.5026ZM8.93244 11.3847H13.5169C13.3796 10.7531 13.2467 10.1335 13.1094 9.51531C13.0509 9.25159 12.9736 9.19111 12.6999 9.19111C11.4522 9.19111 10.204 9.19111 8.95623 9.18814C8.90807 9.18396 8.85973 9.19375 8.817 9.21635C8.77427 9.23895 8.73896 9.27338 8.71531 9.31554C8.49918 9.64668 8.50165 9.8182 8.75794 10.132C8.85553 10.244 8.92897 10.3749 8.97367 10.5166C9.01836 10.6583 9.03335 10.8077 9.0177 10.9554C9.00233 11.0996 8.96168 11.2414 8.93244 11.3847ZM3.82651 16.1565C3.75959 16.6274 3.86022 16.7821 4.3252 16.7806C7.78732 16.7712 11.2494 16.7756 14.712 16.7756C14.78 16.7756 14.8608 16.7975 14.9128 16.7672C15.012 16.7087 15.1299 16.6359 15.1686 16.5402C15.2127 16.4316 15.179 16.2923 15.179 16.1565H3.82651ZM5.46883 11.3941C5.90259 11.3941 6.31156 11.3941 6.71557 11.3941C6.75698 11.392 6.7963 11.3753 6.82661 11.347C7.09331 11.0783 7.09034 10.7824 6.86528 10.4696C6.74284 10.2995 6.62981 10.0973 6.59561 9.89603C6.55843 9.67543 6.61742 9.43897 6.63527 9.20202C6.62535 9.20202 6.58321 9.19458 6.54108 9.19359C5.96356 9.18169 5.95365 9.18913 5.83021 9.74682C5.71223 10.2842 5.59475 10.825 5.46982 11.3941H5.46883ZM7.5578 11.3941C7.71029 11.4013 7.86306 11.3997 8.01535 11.3891C8.09425 11.3783 8.16632 11.3385 8.21761 11.2776C8.45902 10.9425 8.45109 10.7725 8.19282 10.4517C7.91918 10.1122 7.85028 9.7369 7.98759 9.32298C7.99999 9.28629 8.00544 9.24713 8.01833 9.19111C7.84036 9.19111 7.68024 9.19111 7.52261 9.19111C7.49234 9.19158 7.46294 9.20126 7.43833 9.21887C7.19791 9.40725 7.15329 9.78251 7.33572 10.0363C7.42392 10.1468 7.50315 10.2642 7.57267 10.3873C7.73329 10.7115 7.70949 11.0431 7.55879 11.3941H7.5578ZM5.37316 18.3585V17.429H4.13386V18.3585H5.37316ZM14.8727 18.3585V17.429H13.6324V18.3585H14.8727Z" fill="#455BB1"/>
<path d="M9.48963 7.68372C8.92153 7.67727 8.51008 7.1414 8.68805 6.59957C8.83676 6.1445 9.02365 5.70033 9.21797 5.26113C9.24302 5.20654 9.28329 5.16036 9.33395 5.12811C9.38461 5.09587 9.4435 5.07893 9.50355 5.07935C9.5636 5.07977 9.62225 5.09752 9.67246 5.13047C9.72266 5.16342 9.76229 5.21017 9.78657 5.26509C9.98558 5.70206 10.1624 6.14877 10.3165 6.60354C10.4954 7.14834 10.0662 7.68966 9.48963 7.68372ZM9.50153 6.24612C9.41725 6.45879 9.33893 6.61246 9.29977 6.77605C9.29458 6.81856 9.29926 6.86169 9.31344 6.9021C9.32763 6.94251 9.35094 6.9791 9.38156 7.00904C9.41649 7.02882 9.45586 7.03942 9.496 7.03985C9.53614 7.04029 9.57573 7.03054 9.61108 7.01152C9.64339 6.98304 9.66864 6.94743 9.68481 6.9075C9.70099 6.86758 9.70765 6.82444 9.70428 6.7815C9.6666 6.61692 9.58679 6.46176 9.50153 6.24612Z" fill="#455BB1"/>
<path d="M11.9003 6.78789C11.9233 6.67888 11.9526 6.57129 11.988 6.46567C12.1333 6.08644 12.2854 5.71068 12.4342 5.33245C12.4927 5.18373 12.5829 5.0717 12.7539 5.06773C12.9249 5.06377 13.0206 5.17035 13.0806 5.32105C13.2387 5.72159 13.4092 6.11767 13.557 6.52218C13.7364 7.01443 13.4856 7.5042 12.9948 7.65193C12.8851 7.68398 12.77 7.69356 12.6565 7.68009C12.543 7.66662 12.4333 7.63039 12.3342 7.57355C12.235 7.51671 12.1483 7.44045 12.0793 7.34931C12.0102 7.25818 11.9603 7.15406 11.9325 7.04318C11.9169 6.95876 11.9062 6.87353 11.9003 6.78789ZM12.7633 6.24259C12.6795 6.45427 12.6002 6.60943 12.5606 6.7745C12.5558 6.81728 12.561 6.86059 12.5758 6.90101C12.5906 6.94144 12.6146 6.97788 12.6458 7.00749C12.6809 7.02698 12.7203 7.03721 12.7603 7.03721C12.8004 7.03721 12.8398 7.02698 12.8749 7.00749C12.9064 6.97815 12.9308 6.94189 12.946 6.90155C12.9613 6.86121 12.9669 6.81789 12.9626 6.775C12.9249 6.61191 12.8466 6.45674 12.7633 6.24606V6.24259Z" fill="#455BB1"/>
<path d="M6.10532 7.68364C5.53822 7.67868 5.12132 7.13834 5.29779 6.60148C5.45197 6.14648 5.6295 5.69974 5.8297 5.26303C5.85923 5.2124 5.90013 5.16934 5.94917 5.13724C5.99821 5.10515 6.05405 5.08491 6.11226 5.07812C6.17075 5.08429 6.22698 5.10404 6.27647 5.1358C6.32596 5.16756 6.36734 5.21045 6.3973 5.26105C6.59843 5.69742 6.77615 6.1442 6.92971 6.59949C7.10767 7.14776 6.67987 7.68859 6.10532 7.68364ZM6.11425 6.24604C6.03691 6.43888 5.95859 6.58809 5.92092 6.74722C5.91263 6.79199 5.91442 6.83805 5.92617 6.88204C5.93792 6.92603 5.95932 6.96685 5.98883 7.00152C6.03543 7.04465 6.18216 7.04614 6.22975 7.0045C6.26049 6.9705 6.28325 6.93008 6.29637 6.88617C6.30949 6.84226 6.31264 6.79597 6.3056 6.75069C6.2704 6.59305 6.19208 6.44433 6.11425 6.24604Z" fill="#455BB1"/>
<path d="M0.946859 18.0511C0.731716 18.0511 0.541855 18.058 0.351993 18.0511C0.150235 18.0416 0.0302705 17.9405 0.00498869 17.7794C-0.00194161 17.7332 0.00137697 17.686 0.0147093 17.6412C0.0280416 17.5964 0.0510615 17.5551 0.0821381 17.5202C0.113215 17.4853 0.151587 17.4576 0.194538 17.4392C0.237489 17.4208 0.283966 17.412 0.330677 17.4136C0.954295 17.4046 1.57791 17.4056 2.20153 17.4136C2.2435 17.4115 2.28546 17.4179 2.32488 17.4325C2.36431 17.447 2.40038 17.4694 2.43094 17.4982C2.4615 17.5271 2.48591 17.5618 2.50271 17.6003C2.51951 17.6388 2.52836 17.6804 2.5287 17.7224C2.53366 17.9078 2.41568 18.0307 2.20351 18.0501C2.10437 18.059 2.00522 18.054 1.90608 18.055H1.59179C1.59179 18.2672 1.59824 18.463 1.59179 18.6583C1.58535 18.8536 1.45795 18.986 1.28891 18.9959C1.21435 19.0024 1.14004 18.9809 1.08054 18.9355C1.02103 18.8901 0.980607 18.8241 0.967183 18.7505C0.954024 18.6777 0.947553 18.6039 0.94785 18.5299C0.944876 18.3822 0.946859 18.235 0.946859 18.0511Z" fill="#455BB1"/>
<path d="M2.5282 14.6375C2.493 14.6802 2.44095 14.7991 2.35172 14.8457C1.73058 15.1689 1.1025 15.4837 0.471947 15.7931C0.434069 15.8143 0.392168 15.8274 0.348929 15.8315C0.305691 15.8357 0.262069 15.8307 0.220859 15.817C0.17965 15.8033 0.141761 15.7811 0.109622 15.7519C0.0774825 15.7226 0.0518016 15.687 0.0342249 15.6473C-0.0411247 15.4887 0.0114218 15.3172 0.18889 15.2264C0.81449 14.9077 1.44158 14.5914 2.07263 14.2846C2.30265 14.1775 2.53216 14.3302 2.5282 14.6375Z" fill="#455BB1"/>
<path d="M2.56775 13.3313C2.4924 13.4186 2.43441 13.5385 2.33923 13.5876C1.72255 13.9093 1.09992 14.2187 0.474324 14.5245C0.291899 14.6138 0.113439 14.5458 0.0351151 14.3832C-0.0432089 14.2206 0.00983328 14.0511 0.18631 13.9609C0.811414 13.6416 1.4385 13.3264 2.07005 13.0215C2.30106 12.9105 2.53058 13.0607 2.56775 13.3313Z" fill="#455BB1"/>
<path d="M5.09054 3.84192C5.03205 3.91182 4.97603 4.03376 4.88531 4.07045C4.7946 4.10713 4.66819 4.06499 4.56062 4.04566C4.5274 4.03872 4.49469 3.98915 4.47585 3.95197C4.15462 3.31447 3.82893 2.67697 3.52456 2.03254C3.48292 1.94479 3.51415 1.77674 3.57711 1.69892C3.64006 1.62109 3.78531 1.5963 3.88693 1.60919C3.96575 1.61911 4.05845 1.71131 4.0991 1.79013C4.4124 2.39788 4.71479 3.01059 5.01817 3.6243C5.04676 3.69527 5.07093 3.76795 5.09054 3.84192Z" fill="#455BB1"/>
<path d="M13.9705 3.82541C13.8897 3.91464 13.8218 4.0237 13.7251 4.08715C13.6101 4.162 13.4867 4.11243 13.3915 4.01626C13.3617 3.98509 13.337 3.94947 13.3181 3.91067C13.0108 3.30044 12.6975 2.69269 12.4055 2.0765C12.3837 2.01868 12.3744 1.9569 12.3781 1.89522C12.3819 1.83353 12.3987 1.77334 12.4273 1.71859C12.4719 1.64424 12.6256 1.59813 12.7248 1.60706C12.8085 1.61499 12.9151 1.7062 12.9572 1.78552C13.275 2.39724 13.5794 3.0159 13.8862 3.63307C13.9067 3.68413 13.9232 3.73666 13.9358 3.79021L13.9705 3.82541Z" fill="#455BB1"/>
<path d="M2.56681 6.99554C2.49295 7.08378 2.43594 7.20622 2.34126 7.2558C1.73003 7.57504 1.11137 7.88189 0.49172 8.18478C0.293431 8.28144 0.115468 8.21997 0.0351608 8.05242C-0.045146 7.88487 0.0163234 7.71186 0.216595 7.61024C0.820714 7.30388 1.42698 7.00133 2.0354 6.70257C2.28921 6.57864 2.52814 6.71249 2.56681 6.99554Z" fill="#455BB1"/>
<path d="M2.56825 12.0594C2.49439 12.1477 2.43837 12.2696 2.34369 12.3187C1.72751 12.6404 1.10439 12.9497 0.480276 13.2556C0.295372 13.3463 0.117408 13.2824 0.0371013 13.1208C-0.0432056 12.9592 0.0103323 12.7852 0.198211 12.6905C0.817862 12.3742 1.43751 12.0614 2.0651 11.759C2.29809 11.6455 2.5281 11.7897 2.56825 12.0594Z" fill="#455BB1"/>
<path d="M10.1697 3.82852C10.0943 3.91478 10.0314 4.01938 9.94016 4.08184C9.82615 4.16016 9.70123 4.11902 9.60258 4.02632C9.56329 3.98729 9.53094 3.94186 9.5069 3.89198C9.2055 3.29215 8.90708 2.69134 8.60667 2.09152C8.54124 1.96065 8.51149 1.81738 8.62353 1.71576C8.70773 1.64188 8.81693 1.60288 8.92889 1.6067C9.01267 1.61513 9.11826 1.70585 9.16089 1.78665C9.47865 2.39837 9.78351 3.01703 10.0909 3.6342C10.1118 3.6851 10.1284 3.73766 10.1404 3.79135L10.1697 3.82852Z" fill="#455BB1"/>
<path d="M0.357819 10.7612C0.177873 10.7641 0.0554295 10.6942 0.033122 10.5579C0.0162675 10.4518 0.0693097 10.3304 0.107976 10.2218C0.120865 10.1846 0.182334 10.1604 0.225958 10.1385C0.82578 9.83748 1.4261 9.5374 2.02691 9.23831C2.15729 9.17288 2.30154 9.14413 2.40366 9.25467C2.4778 9.33893 2.51682 9.44838 2.51272 9.56053C2.50479 9.64431 2.41358 9.7494 2.33277 9.79203C1.72105 10.1098 1.10239 10.4152 0.48522 10.722C0.44423 10.7395 0.401533 10.7526 0.357819 10.7612Z" fill="#455BB1"/>
<path d="M2.25695 7.88647C2.33676 7.95736 2.46713 8.02032 2.49836 8.11599C2.52959 8.21167 2.47556 8.34551 2.43442 8.45308C2.41657 8.49968 2.34072 8.52893 2.2857 8.55619C1.7024 8.84867 1.11844 9.13999 0.533821 9.43015C0.48553 9.45757 0.433636 9.4781 0.379652 9.49112C0.312692 9.50717 0.242241 9.49948 0.180316 9.46938C0.118391 9.43927 0.0688286 9.38862 0.0400831 9.32605C0.00481486 9.26676 -0.00812239 9.19683 0.0036018 9.12884C0.015326 9.06086 0.0509409 8.9993 0.104031 8.95525C0.155516 8.91128 0.213128 8.87504 0.275055 8.84768C0.841829 8.5628 1.4091 8.27909 1.97687 7.99652C2.0537 7.95885 2.13599 7.93159 2.25695 7.88647Z" fill="#455BB1"/>
<path d="M8.8903 3.85777C8.82387 3.92618 8.75646 4.0511 8.66029 4.07985C8.56412 4.1086 8.43473 4.05159 8.32815 4.01541C8.29097 4.00252 8.26718 3.94006 8.24537 3.89643C7.94397 3.29661 7.64356 2.69629 7.34415 2.09548C7.27871 1.9656 7.245 1.82283 7.35703 1.71923C7.44168 1.64632 7.54969 1.60621 7.66141 1.6062C7.74023 1.60918 7.8473 1.69147 7.88646 1.76681C8.21116 2.39588 8.52297 3.03189 8.83726 3.66642C8.85935 3.72889 8.87708 3.79283 8.8903 3.85777Z" fill="#455BB1"/>
<path d="M6.35961 3.85167C6.2917 3.92305 6.22527 4.04996 6.1291 4.0792C6.03293 4.10845 5.90404 4.05045 5.7935 4.01674C5.76128 4.00683 5.73847 3.9523 5.71964 3.91413C5.40981 3.29745 5.0985 2.68177 4.79462 2.06261C4.7044 1.87771 4.76735 1.69726 4.92648 1.61646C5.08561 1.53566 5.27349 1.59614 5.36272 1.77708C5.67601 2.39177 5.98237 3.00993 6.28922 3.6281C6.31738 3.70106 6.34089 3.77573 6.35961 3.85167Z" fill="#455BB1"/>
<path d="M2.56936 15.8556C2.49599 15.9448 2.44047 16.0678 2.34628 16.1168C1.72961 16.4396 1.10698 16.7499 0.481382 17.0587C0.298461 17.1484 0.120992 17.085 0.038207 16.9249C-0.0445784 16.7648 0.0104466 16.5853 0.196838 16.4901C0.816489 16.1739 1.43862 15.8611 2.06521 15.5577C2.29523 15.4446 2.52821 15.5884 2.56936 15.8556Z" fill="#455BB1"/>
<path d="M6.41509 1.59064C6.45871 1.62881 6.57768 1.68978 6.62775 1.78347C6.9465 2.39569 7.25285 3.01385 7.55673 3.63301C7.65092 3.82485 7.58449 4.0053 7.41297 4.08511C7.24145 4.16492 7.08134 4.10246 6.98368 3.91111C6.67385 3.30187 6.36651 2.69114 6.06659 2.07694C5.94465 1.82611 6.08841 1.58618 6.41509 1.59064Z" fill="#455BB1"/>
<path d="M15.3149 3.85432C15.2554 3.92224 15.1974 4.04319 15.1072 4.07641C15.0169 4.10962 14.8876 4.07046 14.7839 4.03724C14.7344 4.02188 14.7002 3.9495 14.6734 3.89547C14.371 3.29598 14.0704 2.69549 13.7717 2.09402C13.7072 1.96463 13.678 1.8179 13.7856 1.71479C13.8694 1.6401 13.9787 1.60052 14.0909 1.60424C14.1752 1.61218 14.2818 1.70339 14.3239 1.7827C14.6417 2.39492 14.947 3.01408 15.2534 3.63224C15.2799 3.70445 15.3005 3.77873 15.3149 3.85432Z" fill="#455BB1"/>
<path d="M11.0006 4.11441C10.9545 4.07227 10.8385 4.00981 10.7879 3.91265C10.4702 3.30093 10.1638 2.68326 9.86042 2.06411C9.7702 1.88119 9.83216 1.70074 9.99079 1.61796C10.1494 1.53517 10.3318 1.59416 10.426 1.77907C10.7418 2.39872 11.0546 3.01837 11.3575 3.64595C11.4715 3.8834 11.3154 4.12333 11.0006 4.11441Z" fill="#455BB1"/>
<path d="M2.56887 10.7884C2.496 10.8776 2.44098 11.002 2.34679 11.0511C1.72863 11.3738 1.10352 11.6837 0.477426 11.9905C0.292026 12.0812 0.11555 12.0148 0.0352428 11.8502C-0.0450641 11.6856 0.00847381 11.5206 0.188421 11.4284C0.809064 11.1101 1.43301 10.7983 2.06026 10.4929C2.29424 10.3789 2.52525 10.5197 2.56887 10.7884Z" fill="#455BB1"/>
<path d="M12.6593 3.76309C12.6593 3.93808 12.5939 4.03871 12.4586 4.09324C12.4016 4.11866 12.338 4.12481 12.2772 4.11076C12.2165 4.09672 12.162 4.06324 12.122 4.01541C12.0846 3.97428 12.0535 3.92784 12.0298 3.8776C11.7323 3.28769 11.4367 2.69729 11.1429 2.10639C11.0785 1.97701 11.0438 1.83127 11.1499 1.72568C11.2316 1.6487 11.34 1.6064 11.4523 1.60769C11.5365 1.61364 11.6466 1.70089 11.6887 1.78169C12.0099 2.40035 12.3183 3.02595 12.6306 3.65056C12.6447 3.68675 12.6544 3.72454 12.6593 3.76309Z" fill="#455BB1"/>
<path d="M9.51286 12.9839C10.1127 12.9839 10.7123 12.9839 11.3118 12.9839C11.7917 12.9839 12.0296 13.2208 12.0351 13.6987C12.0381 13.9709 12.04 14.244 12.0351 14.5147C12.0257 14.9499 11.7719 15.2042 11.3356 15.2052C10.1128 15.2088 8.88858 15.2088 7.66283 15.2052C7.23453 15.2052 6.97973 14.9519 6.96882 14.529C6.96254 14.2385 6.96254 13.9479 6.96882 13.6571C6.97824 13.2248 7.22164 12.9869 7.65738 12.9844C8.27852 12.9814 8.8942 12.9839 9.51286 12.9839ZM11.3857 13.6283H7.61574V14.5479H11.3857V13.6283Z" fill="#455BB1"/>
<path d="M5.22596 12.9878C5.5198 12.9875 5.80183 13.1034 6.01057 13.3102C6.21932 13.517 6.33786 13.798 6.34034 14.0918C6.33525 14.3854 6.2164 14.6657 6.00881 14.8734C5.80122 15.0812 5.5211 15.2003 5.22745 15.2057C4.93378 15.2032 4.65291 15.0851 4.44571 14.877C4.23851 14.6688 4.12167 14.3874 4.1205 14.0938C4.11965 13.9483 4.14765 13.8042 4.2029 13.6696C4.25815 13.5351 4.33953 13.4129 4.44235 13.31C4.54516 13.2071 4.66736 13.1257 4.80187 13.0704C4.93638 13.0151 5.08053 12.987 5.22596 12.9878ZM5.69194 14.0997C5.69214 13.9753 5.64394 13.8556 5.55754 13.7661C5.47114 13.6765 5.3533 13.6241 5.22893 13.6199C4.98702 13.6199 4.75205 13.8523 4.75255 14.0933C4.75761 14.2141 4.80774 14.3288 4.89306 14.4145C4.97838 14.5003 5.09272 14.5511 5.21357 14.5568C5.27534 14.5589 5.3369 14.5486 5.39463 14.5265C5.45236 14.5045 5.50508 14.471 5.54967 14.4282C5.59427 14.3855 5.62983 14.3342 5.65427 14.2774C5.6787 14.2206 5.69151 14.1595 5.69194 14.0977V14.0997Z" fill="#455BB1"/>
<path d="M13.7776 12.9878C13.923 12.9871 14.0671 13.0154 14.2016 13.0708C14.336 13.1263 14.4581 13.2079 14.5608 13.3109C14.6634 13.414 14.7446 13.5363 14.7996 13.671C14.8546 13.8056 14.8823 13.9498 14.8811 14.0952C14.88 14.389 14.7631 14.6705 14.5556 14.8784C14.3481 15.0864 14.0669 15.204 13.7731 15.2057C13.4795 15.2 13.1995 15.0806 12.9923 14.8725C12.785 14.6644 12.6667 14.3839 12.6622 14.0903C12.665 13.7965 12.7838 13.5157 12.9927 13.3092C13.2017 13.1027 13.4838 12.9871 13.7776 12.9878ZM13.7652 14.5568C13.8896 14.5579 14.0095 14.5107 14.0997 14.4252C14.19 14.3397 14.2435 14.2224 14.249 14.0982C14.2525 13.8568 14.021 13.6218 13.7781 13.6198C13.657 13.623 13.5416 13.6718 13.455 13.7564C13.3684 13.8411 13.317 13.9554 13.3111 14.0764C13.3088 14.1378 13.3188 14.1991 13.3405 14.2566C13.3622 14.3141 13.3951 14.3666 13.4375 14.4112C13.4798 14.4558 13.5305 14.4914 13.5868 14.5161C13.6431 14.5407 13.7038 14.5539 13.7652 14.5548V14.5568Z" fill="#455BB1"/>
</g>
<defs>
<clipPath id="clip0_2001_4605">
<rect width="19" height="19.005" fill="white"/>
</clipPath>
</defs>
</svg>
