<svg width="20" height="20" viewBox="0 0 20 20" fill="none" xmlns="http://www.w3.org/2000/svg">
<g clip-path="url(#clip0_2001_4644)">
<path d="M0 19.1016V8.82812C0.0183195 8.79662 0.0346585 8.764 0.0489225 8.73047C0.224554 8.25635 0.556249 7.98144 1.06798 7.96338C1.48382 7.94873 1.89966 7.95752 2.31697 7.95605H2.82038V5.9834H7.11969V6.2085C7.11969 6.73535 7.12311 7.26269 7.11724 7.78955C7.11724 7.91602 7.15345 7.97266 7.28309 7.95654C7.34473 7.94873 7.40735 7.94727 7.48514 7.94238V7.69189C7.48514 6.18864 7.48514 4.68538 7.48514 3.18213C7.48514 2.92285 7.5008 2.66016 7.69844 2.4751C7.85842 2.32471 8.05851 2.2168 8.2816 2.0625V0H13.3598V2.13379C13.4517 2.13379 13.5163 2.13672 13.5804 2.13379C13.9121 2.11523 14.1812 2.2373 14.4263 2.45996C16.1614 4.03483 17.8998 5.60612 19.6414 7.17383C19.7576 7.27356 19.8501 7.39787 19.9123 7.53773C19.9744 7.67759 20.0045 7.82949 20.0005 7.98242C19.9976 11.6608 19.9964 15.3392 19.9971 19.0176C19.9975 19.1147 19.9875 19.2116 19.9672 19.3066C19.8865 19.6743 19.6164 19.8628 19.297 20.0015H0.859568C0.786184 19.9678 0.712801 19.9326 0.639906 19.8999C0.293535 19.7417 0.114479 19.4468 0 19.1016ZM9.94203 18.0981C10.0223 18.1035 10.0795 18.1099 10.1377 18.1099H17.9095C18.1908 18.1099 18.2432 18.0571 18.2432 17.7822C18.2432 14.7806 18.2411 11.7795 18.2368 8.77881C18.2313 8.65269 18.179 8.53313 18.0901 8.44336C16.6524 7.10319 15.2087 5.76855 13.759 4.43945C13.6628 4.35818 13.5424 4.31082 13.4165 4.30469C12.8294 4.29102 12.2424 4.29834 11.6592 4.29834C10.9557 4.29834 10.2525 4.29834 9.54967 4.29834C9.38284 4.29834 9.24831 4.3335 9.24831 4.54004C9.24831 5.66602 9.24831 6.79215 9.24831 7.91846C9.2486 7.94523 9.25485 7.97161 9.26661 7.99568C9.27838 8.01974 9.29535 8.0409 9.31631 8.05762C9.80162 8.31787 9.94545 8.74121 9.94398 9.26318C9.93665 12.1211 9.94056 14.979 9.94056 17.8369L9.94203 18.0981ZM0.59343 16.6299H9.32756V11.3818H0.59343V16.6299ZM9.85446 19.4131H18.9139C19.3107 19.4131 19.411 19.313 19.411 18.917C19.411 15.3037 19.412 11.6904 19.4139 8.07715C19.4181 7.97738 19.3991 7.87799 19.3586 7.78671C19.318 7.69542 19.2569 7.61469 19.1801 7.55078C17.4521 6 15.7271 4.44336 14.005 2.88086C13.9512 2.82964 13.8878 2.78966 13.8183 2.76325C13.7488 2.73684 13.6748 2.72453 13.6005 2.72705C11.9015 2.73096 10.2025 2.73096 8.50322 2.72705C8.18326 2.72705 8.07955 2.82861 8.07955 3.14355C8.07955 4.67969 8.07955 6.21615 8.07955 7.75293C8.07955 7.81494 8.08738 7.87695 8.09129 7.93945H8.64265V7.69531C8.64265 6.66699 8.64265 5.63818 8.64265 4.60986C8.64607 4.0332 8.96798 3.71094 9.53988 3.71094C10.8417 3.71094 12.144 3.71387 13.4459 3.70752C13.5758 3.70464 13.705 3.72744 13.8261 3.77462C13.9472 3.8218 14.0577 3.89242 14.1513 3.98242C15.6073 5.33138 17.0643 6.68034 18.5225 8.0293C18.6228 8.11703 18.7025 8.22573 18.756 8.34767C18.8094 8.46961 18.8353 8.60181 18.8317 8.73486C18.8272 11.7687 18.8259 14.8024 18.8278 17.8359C18.831 17.9268 18.8228 18.0176 18.8034 18.1064C18.7055 18.4907 18.3905 18.7056 17.9316 18.7056H9.97138C9.93126 18.9551 9.89457 19.1709 9.85446 19.4145V19.4131ZM0.58707 17.2402V18.7393C0.58707 19.2227 0.776889 19.4145 1.25486 19.4145H8.67542C8.72777 19.4145 8.78012 19.4145 8.83198 19.4145C9.13285 19.3965 9.33832 19.1875 9.34077 18.8843C9.34468 18.3765 9.34077 17.8691 9.34077 17.3613C9.34077 17.3242 9.33294 17.2871 9.32805 17.2412L0.58707 17.2402ZM9.33392 10.7705C9.33392 10.1621 9.34566 9.57129 9.32854 8.98096C9.32071 8.72021 9.08686 8.55127 8.79039 8.55127C6.2399 8.55127 3.68924 8.55127 1.13843 8.55127C0.803796 8.55127 0.590984 8.75977 0.58707 9.09912C0.581688 9.61963 0.58707 10.1401 0.58707 10.6616C0.591098 10.6989 0.598967 10.7358 0.610553 10.7715L9.33392 10.7705ZM8.87405 2.11865H12.7624V1.66943H8.87405V2.11865ZM8.87405 1.04443H12.7639V0.59668H8.87258L8.87405 1.04443ZM5.65495 6.56933H5.28607V7.94482H5.65495V6.56933ZM4.6765 6.56933H4.29246V7.9541C4.38522 7.96043 4.47835 7.9588 4.57083 7.94922C4.59448 7.94145 4.61581 7.92791 4.63289 7.90983C4.64998 7.89176 4.66227 7.86972 4.66867 7.8457C4.67699 7.42676 4.67454 7.00635 4.67454 6.5708L4.6765 6.56933ZM6.52186 6.57373H6.26208V7.93945H6.51794L6.52186 6.57373ZM3.4187 6.56738V7.93994H3.66919V6.56885L3.4187 6.56738Z" fill="#455BB1"/>
<path d="M13.751 8.08154C13.958 8.521 14.1576 8.92529 14.343 9.33789C14.7574 10.2612 15.1634 11.188 15.4159 12.1738C15.6492 13.085 15.3215 13.8916 14.5353 14.312C13.4497 14.8926 12.0437 14.1113 12.0079 12.8818C11.9967 12.4829 12.098 12.0713 12.2036 11.6812C12.4262 10.8779 13.3176 8.84424 13.751 8.08154ZM13.729 9.41406C13.4453 10.1118 13.1684 10.7476 12.9301 11.3975C12.7852 11.793 12.6734 12.1998 12.596 12.6138C12.4776 13.2441 13.0099 13.8774 13.6478 13.9082C14.4859 13.9487 15.0871 13.2393 14.8513 12.4155C14.6361 11.6631 14.3425 10.9331 14.0734 10.1968C13.9829 9.94922 13.8621 9.71338 13.729 9.41406Z" fill="#455BB1"/>
<path d="M10.5095 17.3877V16.8198H16.9761V17.3877H10.5095Z" fill="#455BB1"/>
<path d="M16.9815 15.7153V16.2754H10.5183V15.7153H16.9815Z" fill="#455BB1"/>
<path d="M10.9097 5.74561V6.31543H10.2629V5.74561H10.9097Z" fill="#455BB1"/>
<path d="M11.5388 5.74219H12.1817V6.31104H11.5388V5.74219Z" fill="#455BB1"/>
<path d="M4.97644 11.8848C5.41968 12.8047 5.86781 13.6851 6.10851 14.6504C6.27142 15.3022 5.94315 15.916 5.33456 16.1152C5.14051 16.1792 4.9331 16.1915 4.73282 16.151C4.53254 16.1104 4.34634 16.0184 4.19262 15.884C4.03889 15.7496 3.92297 15.5775 3.85632 15.3847C3.78967 15.1919 3.77459 14.9851 3.81258 14.7847C3.89487 14.3843 4.01679 13.993 4.17656 13.6167C4.39916 13.0698 4.66236 12.5396 4.9104 12.0024C4.92214 11.9751 4.94122 11.9487 4.97644 11.8848ZM5.02194 13.2783L4.9241 13.2871C4.75483 13.7676 4.58164 14.2466 4.42068 14.731C4.38111 14.8544 4.37221 14.9856 4.39476 15.1133C4.4245 15.2651 4.5132 15.3991 4.64152 15.4859C4.76983 15.5727 4.92734 15.6053 5.07967 15.5767C5.42213 15.5039 5.63739 15.2031 5.53807 14.8442C5.38935 14.3145 5.19562 13.7993 5.02194 13.2783Z" fill="#455BB1"/>
<path d="M3.03812 18.5166V19.0918C2.59488 19.0918 2.15751 19.127 1.72846 19.0811C1.34246 19.0395 1.08758 18.7681 0.994623 18.3901C0.9457 18.187 0.953528 17.9688 0.934448 17.7437H1.55234C1.55234 17.874 1.54647 18.0024 1.55234 18.1304C1.56555 18.3794 1.69911 18.5103 1.94959 18.5137C2.30721 18.5205 2.66435 18.5166 3.03812 18.5166Z" fill="#455BB1"/>
<path d="M4.25919 18.5312V19.0918H3.41577V18.5312H4.25919Z" fill="#455BB1"/>
<path d="M2.69763 8.97998H7.2528V9.54883H2.69763V8.97998Z" fill="#455BB1"/>
</g>
<defs>
<clipPath id="clip0_2001_4644">
<rect width="20" height="20" fill="white"/>
</clipPath>
</defs>
</svg>
